<svg xmlns="http://www.w3.org/2000/svg" width="816" height="303" viewBox="0 0 816 303" version="1.1">
	<path d="M 349.500 20.663 C 333.839 24.034, 325.996 31.036, 326.004 41.636 C 326.012 51.914, 332.953 57.116, 346.845 57.254 C 355.796 57.343, 361.772 55.138, 366.500 50 C 368.936 47.353, 369.088 46.954, 367.306 47.876 C 366.099 48.500, 364.806 49.505, 364.432 50.110 C 361.615 54.668, 343.475 56.743, 336.283 53.330 C 329.246 49.991, 326.941 40.956, 331.063 32.876 C 334.080 26.962, 341.353 23.841, 353.413 23.286 C 360.816 22.944, 363.148 23.203, 365.997 24.683 C 369.143 26.318, 369.572 27.052, 370.273 32 C 371.742 42.372, 377.940 44.799, 391.127 40.168 L 396.754 38.192 384.127 50.899 C 377.182 57.887, 368.350 67.760, 364.500 72.839 C 359.786 79.058, 356.684 82.242, 355 82.591 C 347.508 84.146, 335.169 88.708, 331.152 91.409 C 326.462 94.562, 322 100.106, 322 102.782 C 322 103.600, 324.363 101.816, 327.250 98.818 C 330.235 95.718, 334.873 92.249, 338 90.776 C 343.391 88.237, 355 84.739, 355 85.653 C 355 86.886, 333.827 117.320, 328.684 123.480 C 321.841 131.676, 314.333 138.133, 308 141.271 C 304.244 143.132, 301.930 143.485, 294 143.411 C 283.194 143.309, 278.965 141.767, 276.517 137.033 C 274.008 132.180, 274.466 131.039, 278.650 131.718 C 281.498 132.180, 282.597 131.905, 283.650 130.464 C 285.728 127.621, 285.281 124.230, 282.595 122.470 C 280.449 121.064, 279.808 121.053, 276.654 122.371 C 273.863 123.537, 272.898 124.667, 272.073 127.730 C 269.086 138.823, 278.841 147, 295.062 147 C 315.776 147, 332.127 133.809, 361.367 93.510 C 366.151 86.915, 371.064 81.142, 372.283 80.680 C 375.236 79.561, 391.038 76.049, 393.242 76.022 C 394.592 76.005, 394.013 77.292, 390.667 81.750 C 379.789 96.241, 370.235 115.672, 369.356 125.092 C 368.026 139.335, 374.294 147, 387.272 147 C 394.260 147, 400.858 143.698, 409.272 135.988 L 415.750 130.052 416.918 135.987 C 418.901 146.067, 425.362 148.614, 435.781 143.422 C 440.870 140.886, 449.275 132.665, 451.293 128.250 C 452.065 126.561, 453.216 125.975, 455.911 125.900 C 461.317 125.750, 464.373 124.636, 465.492 122.406 C 467.560 118.285, 477.521 106.635, 481.342 103.868 C 485.710 100.703, 489.735 100.145, 490.667 102.575 C 491 103.441, 490.226 106.383, 488.947 109.113 C 486.589 114.147, 482.743 118.609, 475.182 125.078 C 471.322 128.380, 471 129.035, 471.004 133.578 C 471.009 140.222, 473.757 144.676, 478.387 145.545 C 485.077 146.800, 488.648 144.608, 502.289 130.872 C 522.634 110.384, 535.574 100.174, 538.054 102.654 C 538.520 103.120, 533.016 111.826, 525.823 122.001 C 518.630 132.175, 512.076 141.512, 511.258 142.750 C 509.782 144.982, 509.810 145, 514.779 145 L 519.788 145 527.908 133.510 C 542.970 112.195, 553.409 102, 560.171 102 C 561.727 102, 563 102.364, 563 102.809 C 563 104.679, 547.588 127.947, 537.207 141.750 L 534.763 145 540.131 144.971 L 545.500 144.942 554.932 131.966 C 566.594 115.923, 572.616 109.105, 578.662 105.101 C 583.093 102.166, 589 100.920, 589 102.921 C 589 103.427, 585.617 108.126, 581.481 113.362 C 573.388 123.609, 569.023 131.710, 569.014 136.500 C 569.004 141.182, 572.327 145.807, 575.968 146.182 C 578.925 146.487, 578.249 147.255, 559.024 165.415 C 548.011 175.819, 539 184.869, 539 185.528 C 539 187.415, 522.630 202.638, 518.135 204.931 C 513.357 207.369, 508.745 207.602, 506.996 205.495 C 505.265 203.410, 506.181 195.675, 508.900 189.408 L 511.110 184.317 518.805 182.660 C 531.767 179.870, 538 175.500, 538 169.205 C 538 163.883, 527.640 162.176, 519 166.074 C 513.272 168.658, 505.514 176.176, 502.490 182.073 C 499.568 187.772, 487.005 200.743, 481 204.261 C 478.525 205.711, 474.637 207.195, 472.360 207.559 C 468.888 208.114, 467.861 207.861, 465.993 205.993 C 464.177 204.177, 463.856 202.974, 464.250 199.474 C 465.670 186.874, 482.945 166.352, 491.413 167.205 C 495.109 167.577, 496.175 170, 492.642 170 C 489.561 170, 488.617 171.337, 489.425 174.557 C 490.657 179.466, 498 176.190, 498 170.732 C 498 169.729, 496.895 167.805, 495.545 166.455 C 490.280 161.190, 477.417 164.531, 468.457 173.491 C 463.017 178.931, 460.566 184.027, 458.971 193.219 C 457.934 199.200, 458.008 200.352, 459.653 203.711 C 461.878 208.256, 464.994 209.973, 471 209.963 C 477.283 209.953, 482.569 207.257, 491.395 199.559 L 499 192.927 499 196.443 C 499 202.399, 501.709 207.634, 505.794 209.573 C 508.907 211.050, 510.088 211.127, 513.966 210.111 C 520.221 208.471, 528.274 202.729, 534.372 195.561 C 541.408 187.293, 561.876 166.277, 565.292 163.816 C 568.293 161.654, 568.359 161.554, 543.030 197.500 C 521.541 227.996, 499.056 260.690, 498.405 262.386 C 497.892 263.723, 498.554 264, 502.270 264 L 506.753 264 534.613 223.909 C 549.935 201.860, 564.839 181.203, 567.733 178.006 C 574.436 170.599, 581.307 166, 585.671 166 C 588.637 166, 589 166.300, 588.996 168.750 C 588.991 172.966, 585.638 177.780, 576.941 186.059 C 569.795 192.861, 569 193.991, 569 197.341 C 569 202.121, 571.269 207.538, 573.850 208.920 C 576.691 210.440, 581.437 210.262, 585.716 208.474 C 587.999 207.520, 595.760 200.453, 606.433 189.609 C 625.721 170.012, 630.902 166.011, 622.461 177.231 C 615.785 186.106, 612.546 194.922, 613.254 202.293 C 613.607 205.961, 614.365 207.877, 615.982 209.186 C 618.698 211.386, 624.742 211.552, 629.511 209.560 C 633.682 207.817, 642.095 200.151, 646.588 194 L 649.875 189.500 656.750 189.500 C 663.433 189.500, 663.776 189.374, 669.020 185 L 674.415 180.500 671.316 185.023 C 663.040 197.100, 662.784 208.696, 670.757 210.447 C 676.260 211.655, 684.019 208.067, 694.841 199.308 L 698.182 196.603 697.472 201.341 C 696.629 206.961, 698.358 209.601, 703.516 210.569 C 708.495 211.503, 714.797 207.669, 727.250 196.128 L 732 191.726 732 197.429 C 732 204.160, 733.030 206.447, 736.980 208.490 C 741.474 210.814, 747.860 210.372, 754 207.313 C 762.653 203.001, 780.838 184, 776.311 184 C 775.932 184, 771.770 187.987, 767.061 192.860 C 757.755 202.491, 751.791 206.530, 745.360 207.559 C 740.148 208.392, 737 205.785, 737 200.634 C 737 195.410, 743.319 183.979, 750.488 176.236 C 757.121 169.072, 761.117 166.588, 765.077 167.168 C 768.309 167.641, 768.780 170, 765.642 170 C 762.561 170, 761.617 171.337, 762.425 174.557 C 763.691 179.601, 771 176.351, 771 170.744 C 771 166.868, 766.773 164, 761.061 164 C 752.476 164, 740.649 171.927, 736.133 180.709 C 733.299 186.220, 716.185 202.588, 710.736 204.999 C 705.817 207.175, 703 206.818, 703 204.020 C 703 203.049, 708.511 193.984, 715.247 183.877 C 721.983 173.770, 727.646 165.162, 727.830 164.750 C 728.015 164.337, 726.217 164.002, 723.833 164.005 L 719.500 164.009 709.687 176.943 C 694.660 196.749, 681.709 207.810, 674.710 206.814 C 668.778 205.971, 672.792 195.608, 686.459 176.481 L 695.019 164.500 690.698 164.203 C 686.418 163.909, 686.283 164.003, 676.141 174.309 C 668.730 181.840, 664.849 185.028, 662.086 185.856 C 657.943 187.097, 653 187.378, 653 186.373 C 653 186.028, 654.320 182.990, 655.934 179.623 C 660.007 171.121, 660.520 167.864, 658.231 165.037 C 656.832 163.309, 655.816 162.924, 654.097 163.469 C 651.030 164.443, 648.981 169.725, 648.310 178.384 C 647.874 184.022, 647.111 186.539, 644.639 190.500 C 636.294 203.871, 624.274 211.650, 619.971 206.465 C 618.947 205.231, 618.940 203.847, 619.936 199.397 C 620.881 195.173, 623.729 190.012, 631.978 177.578 L 642.781 161.293 654.028 153.569 C 660.214 149.321, 666.288 145.461, 667.526 144.990 C 670.711 143.779, 676.508 138.498, 682.334 131.500 L 687.330 125.500 693.915 125.500 L 700.500 125.500 700.520 132.500 C 700.544 141.064, 702.494 144.627, 707.694 145.602 C 715.363 147.041, 725.959 141.061, 732.456 131.628 C 735.970 126.527, 736.435 126.213, 741.158 125.759 C 745.475 125.344, 746.832 124.620, 751.217 120.390 L 756.287 115.500 753.093 120.254 C 746.199 130.514, 744.538 137.272, 747.502 143.005 C 750.788 149.357, 761.651 147.094, 773.053 137.682 L 779.500 132.361 779.171 137.992 C 778.776 144.735, 780.076 146.269, 786.289 146.396 C 791.387 146.499, 796.789 143.044, 807.634 132.743 C 814.461 126.258, 816.972 122.639, 815.598 121.264 C 815.276 120.942, 811.312 124.410, 806.789 128.969 C 795.657 140.192, 788.796 144.346, 785.135 142.083 C 782.982 140.753, 784.364 138.075, 797.094 118.900 C 803.642 109.036, 809 100.749, 809 100.483 C 809 100.217, 807.087 100.021, 804.750 100.047 L 800.500 100.094 791.500 112.174 C 786.550 118.818, 779.517 127.246, 775.872 130.902 C 764.832 141.974, 753.941 146.298, 753.198 139.904 C 752.778 136.284, 759.151 124.384, 768.346 111.617 C 772.556 105.773, 776 100.768, 776 100.495 C 776 100.223, 774.110 100, 771.801 100 C 767.787 100, 767.088 100.508, 755.958 111.500 C 746.127 121.210, 743.830 123, 741.202 123 L 738.089 123 739.544 118.874 C 741.206 114.166, 741.440 107.287, 740.062 103.663 C 738.559 99.710, 733.385 98.530, 725.930 100.440 C 722.554 101.304, 718.548 102.898, 717.027 103.981 C 713.474 106.511, 703 117.806, 703 119.108 C 703 120.516, 696.638 123, 693.032 123 C 689.950 123, 689.258 122.163, 690.924 120.450 C 692.721 118.602, 695.999 108.449, 695.999 104.729 C 696 101.677, 695.523 100.740, 693.504 99.820 C 691.442 98.880, 690.660 98.998, 689.004 100.496 C 687.902 101.494, 687 102.909, 687 103.642 C 687 104.374, 685.538 105.587, 683.750 106.338 C 679.851 107.975, 671.375 116.168, 663.514 125.896 C 660.358 129.803, 657.593 133, 657.371 133 C 656.316 133, 662.693 122.247, 670.668 110.576 C 679.435 97.746, 679.595 97.583, 692.500 88.383 C 715.400 72.055, 730.964 55.625, 730.991 47.750 C 731.001 44.685, 727.903 41, 725.316 41 C 721.300 41, 714.579 45.616, 708.063 52.850 C 704.274 57.058, 694.209 69.168, 685.697 79.762 C 672.412 96.298, 669.038 99.868, 661.861 104.981 C 653.088 111.230, 648.589 115.413, 636.710 128.357 C 628.168 137.666, 622.207 142.028, 617.094 142.714 C 609.453 143.739, 607.984 137.267, 613.248 125.769 L 615.774 120.251 623.637 118.509 C 636.894 115.573, 642 111.903, 642 105.313 C 642 101.223, 639.864 99.993, 632.816 100.022 C 623.776 100.059, 615.182 105.386, 608.804 114.905 C 604.457 121.392, 593.896 132, 591.785 132 C 590.810 132, 588.629 133.912, 586.939 136.250 C 583.041 141.639, 580.001 143.331, 576.563 142.024 C 575.153 141.488, 574 140.469, 574 139.760 C 574 137.543, 577.988 130.902, 583.118 124.577 C 589.383 116.852, 592.108 111.231, 592.182 105.881 C 592.242 101.552, 590.366 99, 587.125 99 C 584.406 99, 577.245 103.032, 572.419 107.280 L 567.663 111.467 568.291 107.593 C 569.109 102.555, 567.769 100.235, 563.590 99.451 C 559.182 98.624, 553.028 101.365, 546.739 106.957 C 542.406 110.809, 542.068 110.951, 542.989 108.530 C 545.666 101.488, 542.727 97.866, 535.976 99.889 C 530.062 101.661, 515.460 112.695, 508.802 120.423 C 493.813 137.822, 483.394 144.994, 479.200 140.800 C 476.375 137.975, 477.895 134.696, 485.344 127.548 C 493.651 119.575, 495.472 115.701, 494.787 107.449 C 494.246 100.924, 492.777 99, 488.338 99 C 481.532 99, 473.154 105.540, 466.410 116.116 C 462.733 121.883, 461.264 123, 457.360 123 L 454.102 123 455.439 119.750 C 458.942 111.237, 457.756 102.603, 452.756 100.210 C 449.136 98.477, 440.292 100.053, 434.464 103.468 C 429.126 106.596, 421.260 115.239, 418.865 120.607 C 416.708 125.442, 403.863 138.009, 398.043 140.978 C 389.746 145.211, 379.668 144.476, 376.339 139.394 C 371.986 132.751, 377.341 120.112, 396.395 92.058 L 408.920 73.616 423.710 68.505 C 445.511 60.970, 456.585 55.329, 462.694 48.644 C 470.550 40.049, 472.114 30.023, 466.479 24.388 C 459.643 17.552, 441.366 25.560, 424.033 42.986 C 419.834 47.208, 405.808 62.895, 401.337 68.371 C 398.311 72.077, 397.635 72.365, 385.431 75.131 C 378.421 76.719, 372.546 77.880, 372.375 77.709 C 371.802 77.135, 381.983 60.702, 387.646 53.061 C 390.728 48.903, 398.908 40.002, 405.823 33.281 C 412.738 26.561, 418.142 20.808, 417.831 20.498 C 417.521 20.188, 413.608 22.840, 409.136 26.392 C 399.561 33.998, 392.402 37.680, 385.482 38.559 C 378.622 39.430, 376.074 37.356, 374.903 29.947 C 373.970 24.047, 372.661 22.556, 367.046 20.996 C 363.540 20.022, 353.372 19.829, 349.500 20.663 M 451.123 26.030 C 444.124 29.206, 437.247 34.779, 430.338 42.877 C 422.312 52.283, 410.616 69.372, 411.908 69.803 C 413.932 70.477, 434.605 62.773, 444.825 57.535 C 462.073 48.696, 467 43.253, 467 33.040 C 467 24.237, 460.956 21.568, 451.123 26.030 M 74.366 41.608 C 54.540 58.906, 55 58.353, 55 64.879 L 55 70.622 79.936 98.561 L 104.873 126.500 99.436 131.749 C 94.081 136.920, 94 137.083, 94.028 142.749 L 94.057 148.500 117.097 174.500 C 151.060 212.825, 149.189 211, 154.523 211 C 158.608 211, 159.668 210.426, 166.367 204.584 L 173.724 198.168 180.083 204.584 C 185.912 210.465, 186.796 211, 190.686 211 C 195.680 211, 194.255 212.120, 223 185.591 C 258.758 152.588, 259 152.336, 259 147.972 C 259 145.879, 258.662 144.017, 258.248 143.833 C 257.834 143.650, 255.361 140.978, 252.751 137.895 L 248.006 132.291 274.253 108.253 C 304.943 80.147, 306 79.039, 306 74.982 C 306 71.716, 305.250 70.736, 291.106 55.526 C 277.660 41.066, 277.575 41, 272.462 41 C 268.650 41, 267.303 41.587, 263.728 44.804 C 261.402 46.897, 248.652 58.563, 235.394 70.729 L 211.288 92.849 205.426 86.925 C 200.118 81.561, 199.165 81, 195.358 81 C 191.005 81, 188.787 82.337, 180.947 89.689 L 177.395 93.020 171.672 87.010 C 166.375 81.446, 165.624 81, 161.562 81 C 157.775 81, 156.374 81.669, 151.321 85.892 L 145.466 90.783 121.483 63.796 C 108.292 48.953, 96.427 35.951, 95.115 34.904 C 93.613 33.705, 91.157 33, 88.481 33 C 84.576 33, 83.435 33.696, 74.366 41.608 M 75.431 51.498 C 68.914 57.272, 63.241 62.605, 62.824 63.350 C 62.371 64.160, 62.957 65.894, 64.284 67.671 C 68.980 73.962, 109.432 119, 110.386 119 C 110.940 119, 110.007 117.537, 108.314 115.750 C 99.545 106.490, 82 86.594, 82 85.908 C 82 85.476, 84.023 85.811, 86.495 86.653 C 90.229 87.925, 93.131 90.542, 103.619 102.092 C 110.565 109.742, 116.417 116, 116.624 116 C 117.659 116, 116.125 114.123, 105.500 102.393 C 99.175 95.409, 94 89.334, 94 88.892 C 94 88.450, 95.912 88.747, 98.250 89.551 C 101.455 90.653, 104.860 93.525, 112.097 101.226 L 121.694 111.439 129.847 104.077 C 134.331 100.028, 138 96.323, 138 95.844 C 138 95.002, 128.660 84.198, 103.557 56 C 90.875 41.755, 90.151 41.040, 88.390 41.015 C 87.780 41.007, 81.948 45.724, 75.431 51.498 M 722.392 45.498 C 720.801 46.179, 716.772 49.607, 713.437 53.118 C 706.992 59.903, 681.796 92.846, 684.123 91.447 C 692.133 86.628, 711.057 71.612, 717 65.360 C 724.025 57.970, 729 50.257, 729 46.757 C 729 44.632, 725.830 44.028, 722.392 45.498 M 797.500 63.959 C 792.703 65.957, 787.254 74.803, 789.838 76.400 C 790.387 76.739, 791.120 75.776, 791.466 74.259 C 792.218 70.960, 793.651 68.993, 796.973 66.704 C 805.555 60.789, 812.218 72.127, 804.994 80.354 C 800.901 85.016, 796.282 87, 789.522 87 C 784.582 87, 783.467 86.621, 780.923 84.077 C 777.777 80.931, 776.962 82.073, 779.633 85.886 C 783.029 90.734, 792.544 93.257, 798.685 90.936 C 805.009 88.547, 811 80.052, 811 73.474 C 811 68.823, 809.645 66.385, 806.020 64.510 C 802.801 62.846, 800.528 62.699, 797.500 63.959 M 188.466 94.250 L 182.838 99.500 200.532 119.500 C 210.264 130.500, 219.526 140.951, 221.113 142.723 C 224.751 146.785, 225.008 151.841, 221.750 155.254 C 220.512 156.550, 211.175 164.960, 201 173.941 C 190.825 182.923, 181.841 190.885, 181.037 191.635 C 179.769 192.816, 180.236 193.671, 184.535 198.036 C 187.408 200.952, 190.223 202.953, 191.221 202.787 C 193.031 202.485, 250 150.296, 250 148.939 C 250 147.629, 245.556 142.605, 220.206 115.250 C 206.826 100.813, 195.477 89, 194.986 89 C 194.495 89, 191.561 91.362, 188.466 94.250 M 152.500 116.661 C 140.400 127.945, 129.953 138.150, 129.285 139.339 C 127.431 142.638, 127.766 146.230, 130.250 149.698 C 131.488 151.425, 141.676 162.726, 152.892 174.810 L 173.284 196.782 175.504 194.200 L 177.725 191.618 157.745 170.059 C 136.446 147.077, 134.465 144.675, 135.471 143.047 C 135.825 142.475, 145.651 133.166, 157.307 122.361 C 168.963 111.556, 179.175 102.075, 180 101.293 C 181.326 100.036, 181.226 99.647, 179.139 97.935 C 177.841 96.871, 176.266 96.033, 175.639 96.073 C 175.013 96.113, 164.600 105.378, 152.500 116.661 M 267.815 98.982 C 266.338 99.428, 259.229 104.864, 252.016 111.062 C 240.419 121.028, 239.074 122.503, 240.388 123.816 C 241.701 125.129, 243.470 123.937, 255.686 113.501 C 273.426 98.346, 273.815 97.978, 271.972 98.086 C 271.163 98.133, 269.292 98.536, 267.815 98.982 M 256.800 99.868 C 254.382 100.434, 234.978 115.668, 235.015 116.970 C 235.024 117.262, 235.446 118.157, 235.954 118.960 C 236.760 120.234, 237.109 120.225, 238.689 118.888 C 247.711 111.254, 261 99.610, 261 99.339 C 261 98.944, 260.457 99.013, 256.800 99.868 M 444.500 103.164 C 435.772 107.980, 423 128.874, 423 138.338 C 423 144.352, 427.070 145.597, 434.685 141.910 C 444.074 137.365, 455 120.438, 455 110.437 C 455 106.957, 454.461 104.604, 453.429 103.571 C 451.615 101.758, 447.398 101.565, 444.500 103.164 M 725.687 104.750 C 718.657 110.020, 708.253 126.900, 706.673 135.601 C 705.421 142.495, 708.621 145.270, 715.286 143.071 C 728.729 138.634, 743.383 113.339, 737.613 104.531 C 735.327 101.043, 730.515 101.131, 725.687 104.750 M 627.280 104.945 C 623.873 107.049, 618 114.418, 618 116.587 C 618 119.709, 634.752 114.402, 638.022 110.245 C 639.159 108.800, 639.956 106.691, 639.794 105.559 C 639.368 102.577, 631.721 102.202, 627.280 104.945 M 655.259 113.250 C 650.745 117.237, 645.669 122.606, 643.978 125.180 C 640.038 131.179, 629.157 141.367, 623.717 144.151 C 618.123 147.014, 611.972 147.116, 608.340 144.404 C 604.980 141.896, 602.692 135.109, 603.364 129.644 L 603.838 125.788 596.307 133.644 C 592.165 137.965, 587.304 143.750, 585.505 146.500 C 583.706 149.250, 579.039 156.113, 575.133 161.750 C 571.228 167.387, 568.277 172, 568.576 172 C 568.875 172, 571.099 170.489, 573.518 168.642 C 579.070 164.402, 586.112 162.274, 589.491 163.814 C 593.971 165.855, 594.979 176.058, 591.400 183.136 C 590.666 184.586, 587.375 188.208, 584.085 191.185 C 576.961 197.632, 575.227 201.172, 577.496 204.635 C 578.349 205.936, 579.859 207, 580.852 207 C 584.367 207, 592.196 200.625, 603.693 188.400 C 610.970 180.662, 618.737 173.604, 624.416 169.566 C 631.342 164.641, 635.400 160.731, 641.500 153.107 L 649.500 143.106 650.040 135.700 C 650.679 126.949, 654.634 117.970, 661.070 110.658 C 663.325 108.096, 664.787 106, 664.318 106 C 663.849 106, 659.773 109.263, 655.259 113.250 M 679.168 114.464 C 672.439 120.728, 656.587 141.522, 657.462 142.938 C 660.447 147.769, 674.513 137.652, 682.582 124.871 C 684.649 121.596, 685.043 119.873, 684.798 115.193 L 684.500 109.500 679.168 114.464 M 650.175 150.704 C 648.394 153.067, 647.210 155, 647.545 155 C 647.880 155, 650.596 153.251, 653.580 151.114 C 658.902 147.303, 658.953 147.220, 656.211 146.818 C 653.868 146.474, 652.888 147.105, 650.175 150.704 M 524.500 168.162 C 519.675 170.819, 511.847 180.180, 513.264 181.598 C 514.173 182.506, 524.240 179.912, 528.827 177.588 C 533.685 175.126, 536.997 170.423, 535.537 168.060 C 534.682 166.677, 527.069 166.747, 524.500 168.162 M 341.500 177.435 C 336.693 179.064, 337.197 179.159, 352.500 179.517 C 359.397 179.678, 367.477 179.243, 371.500 178.494 L 378.500 177.192 364.875 177.096 C 357.381 177.043, 349.956 176.793, 348.375 176.540 C 346.794 176.287, 343.700 176.690, 341.500 177.435 M 412 176.393 C 412 176.609, 412.675 177.045, 413.500 177.362 C 414.325 177.678, 415 177.501, 415 176.969 C 415 176.436, 414.325 176, 413.500 176 C 412.675 176, 412 176.177, 412 176.393 M 306.844 178.139 C 287.232 178.840, 284.430 179.135, 269 182.117 C 252.169 185.371, 245.340 187.775, 231 195.496 C 206.764 208.544, 182 223.764, 182 225.611 C 182 225.853, 183.400 225.328, 185.110 224.443 C 187.370 223.274, 187.993 223.199, 187.388 224.167 C 186.931 224.900, 186.455 226.175, 186.331 227 C 186.053 228.853, 181.513 232.716, 177.500 234.514 C 175.850 235.254, 171.800 238.569, 168.500 241.882 L 162.500 247.906 162.362 254.413 C 162.266 258.918, 161.728 261.415, 160.612 262.531 C 156.192 266.951, 161.133 267.459, 169.658 263.460 C 177.051 259.993, 180.856 259.247, 185.129 260.429 C 187.566 261.103, 191.149 259.726, 199 255.098 C 199.825 254.612, 205.853 253.491, 212.396 252.607 C 218.940 251.723, 225.622 250.337, 227.247 249.527 C 228.872 248.716, 231.619 247.824, 233.351 247.544 C 251.486 244.616, 262.273 243.785, 274.500 244.375 C 281.100 244.694, 290.306 245.471, 294.958 246.103 C 301.219 246.954, 303.513 246.960, 303.791 246.126 C 304.520 243.939, 311.394 245.351, 311.026 247.612 C 310.947 248.100, 311.921 248.765, 313.191 249.089 C 314.461 249.412, 315.402 250.155, 315.283 250.739 C 315.013 252.063, 327.109 254.967, 332.500 254.872 C 334.700 254.834, 336.784 254.344, 337.131 253.785 C 337.554 253.102, 338.376 253.124, 339.631 253.853 C 341.428 254.897, 341.422 254.943, 339.500 255.046 C 338.400 255.104, 341.325 256.407, 346 257.939 C 357.326 261.653, 360 262.245, 360 261.038 C 360 260.488, 358.762 259.765, 357.250 259.430 C 351.612 258.184, 345.003 255.814, 344.387 254.816 C 343.969 254.141, 344.567 254.060, 346.125 254.581 C 347.431 255.019, 350.075 255.431, 352 255.496 C 355.964 255.631, 369.246 259.252, 376 262.038 C 390.487 268.016, 417.339 276.705, 425.500 278.057 C 428.250 278.513, 432.496 279.316, 434.935 279.842 C 437.374 280.368, 440.299 280.443, 441.435 280.007 C 443.403 279.253, 443.382 279.190, 441 278.676 C 439.625 278.379, 435.575 277.637, 432 277.027 C 423.470 275.572, 411 271.781, 411 270.643 C 411 270.149, 412.913 270.033, 415.250 270.386 C 418.235 270.837, 419.053 270.731, 418 270.030 C 417.175 269.480, 415.712 269.024, 414.750 269.015 C 413.788 269.007, 413 268.527, 413 267.948 C 413 267.369, 411.627 266.417, 409.949 265.832 C 408.271 265.247, 407.076 264.591, 407.293 264.374 C 407.510 264.156, 409.618 264.659, 411.976 265.492 C 414.335 266.324, 419.662 267.222, 423.815 267.489 C 427.968 267.755, 431.622 268.388, 431.935 268.895 C 432.248 269.402, 434.256 270.145, 436.397 270.547 C 439.204 271.073, 440.093 270.959, 439.586 270.138 C 439.199 269.512, 439.321 269, 439.858 269 C 440.394 269, 441.014 269.542, 441.234 270.203 C 441.458 270.873, 443.239 271.361, 445.250 271.304 C 447.500 271.240, 449.066 271.730, 449.400 272.601 C 450.119 274.475, 453 274.394, 453 272.500 C 453 271.675, 453.413 271, 453.918 271 C 455.970 271, 458 272.297, 458 273.607 C 458 275.208, 461.119 275.481, 462.591 274.009 C 463.246 273.354, 465.477 273.415, 469.167 274.189 C 473.234 275.042, 475.668 275.068, 478.126 274.282 L 481.500 273.204 478 273.063 L 474.500 272.922 477.901 271.446 C 479.772 270.634, 481.086 269.752, 480.820 269.487 C 480.555 269.221, 473.399 268.806, 464.919 268.564 C 456.438 268.323, 448.417 267.801, 447.094 267.405 C 445.389 266.895, 444.896 267.023, 445.403 267.842 C 445.863 268.587, 445.323 269, 443.892 269 C 442.668 269, 441.960 268.707, 442.318 268.348 C 443.149 267.518, 438.357 265, 435.945 265 C 434.940 265, 433.840 264.550, 433.500 264 C 432.666 262.651, 434.737 262.730, 449.158 264.601 C 460.163 266.029, 464.679 266.025, 471.500 264.577 C 472.600 264.344, 474.400 264.033, 475.500 263.887 C 476.600 263.741, 472.100 263.293, 465.500 262.892 C 452.803 262.120, 439.379 260.681, 434.147 259.532 C 429.924 258.605, 430.019 256.602, 434.250 257.358 C 449.687 260.115, 479.694 261.040, 488 259.015 L 491.500 258.162 487.500 258.238 C 485.300 258.280, 473.639 257.996, 461.588 257.609 C 443.215 257.017, 438.773 256.574, 434.088 254.864 C 431.014 253.743, 427.744 252.595, 426.820 252.314 C 425.895 252.033, 425.204 250.947, 425.282 249.902 C 425.456 247.601, 430.751 247.186, 431.603 249.407 C 432.006 250.457, 434.212 250.812, 440.321 250.810 C 444.820 250.808, 451.650 251.560, 455.500 252.482 C 465.669 254.917, 469.376 255.417, 468.660 254.258 C 468.049 253.271, 473.741 252.149, 480.890 251.848 C 482.875 251.764, 478.281 251.361, 470.680 250.952 C 452.093 249.951, 437.479 248.082, 435.295 246.425 C 433.625 245.158, 433.674 245.056, 436 244.951 C 438.456 244.840, 438.447 244.813, 435.500 243.464 C 433.850 242.708, 431.375 242.063, 430 242.030 C 426.664 241.949, 424.216 240.371, 425.508 239.134 C 426.132 238.537, 430.024 238.531, 436 239.119 C 441.225 239.633, 448.104 240.251, 451.287 240.491 C 454.470 240.731, 457.497 241.189, 458.012 241.508 C 458.528 241.826, 464.336 242.349, 470.920 242.670 C 481.158 243.169, 483.125 243.018, 484.516 241.627 C 485.415 240.728, 487.751 240, 489.738 240 C 491.715 240, 493.110 239.777, 492.838 239.504 C 492.565 239.232, 483.658 238.809, 473.044 238.564 C 462.429 238.320, 451.665 237.639, 449.123 237.051 C 446.580 236.464, 440 235.196, 434.500 234.233 C 427.210 232.957, 424.500 232.088, 424.500 231.026 C 424.500 228.880, 432.151 229.246, 439 231.719 C 441.741 232.709, 442.222 232.698, 446.232 231.564 C 447.760 231.132, 450.285 231.252, 451.960 231.836 C 453.608 232.411, 455.195 232.494, 455.487 232.022 C 456.103 231.024, 453.378 230.363, 443 228.994 C 434.511 227.874, 434.175 227.809, 428 226.069 C 422.559 224.536, 417.921 221.936, 418.618 220.809 C 419.188 219.888, 417.850 219.286, 413.663 218.579 C 412.103 218.316, 410.303 217.702, 409.663 217.215 C 408.530 216.351, 402.462 214.468, 392.659 211.938 C 389.996 211.251, 387.601 210.125, 387.336 209.435 C 387.072 208.744, 383.625 207.403, 379.678 206.453 C 371.030 204.372, 370.618 204.165, 371.943 202.569 C 373.331 200.896, 372.266 200, 368.892 200 C 365.862 200, 364.049 198.206, 365.913 197.054 C 367.661 195.974, 392.784 195.811, 398.250 196.844 C 402.043 197.561, 403 197.466, 403 196.371 C 403 195.415, 401.562 194.972, 398.250 194.908 C 387.771 194.705, 378.368 194.129, 376 193.545 C 374.625 193.206, 370.447 192.653, 366.716 192.317 C 362.434 191.930, 360.072 191.298, 360.311 190.602 C 360.572 189.845, 366.289 189.560, 378.595 189.693 C 397.702 189.899, 399.829 188.597, 382.276 187.439 C 371.565 186.733, 371.092 186.683, 366 185.698 C 364.075 185.326, 353.950 184.812, 343.500 184.557 C 308.830 183.711, 288.591 182.695, 290.717 181.909 C 293.477 180.888, 304.113 179.923, 317 179.524 C 338.801 178.850, 337.858 178.937, 334.500 177.916 C 332.850 177.414, 329.975 177.116, 328.111 177.252 C 326.247 177.388, 316.677 177.788, 306.844 178.139 M 388 178 C 388 178.550, 388.477 179, 389.059 179 C 389.641 179, 389.840 178.550, 389.500 178 C 389.160 177.450, 388.684 177, 388.441 177 C 388.198 177, 388 177.450, 388 178 M 334.250 186.731 C 332.070 187.491, 332.901 189, 335.500 189 C 336.875 189, 338 188.598, 338 188.107 C 338 186.956, 335.858 186.170, 334.250 186.731 M 182.029 227.961 C 181.220 228.473, 180.818 229.152, 181.136 229.470 C 181.455 229.788, 182.284 229.362, 182.980 228.524 C 184.423 226.786, 184.146 226.622, 182.029 227.961 M 457.428 231.823 C 457.427 233.187, 458.230 233.434, 461.727 233.148 C 464.092 232.955, 466.809 233.121, 467.764 233.517 C 469.914 234.410, 475.315 234.542, 476.624 233.733 C 477.158 233.402, 478.149 233.474, 478.824 233.892 C 480.172 234.724, 491.767 233.421, 495.290 232.040 C 496.663 231.502, 490.177 231.143, 478.161 231.091 C 467.525 231.045, 458.509 230.814, 458.125 230.577 C 457.742 230.341, 457.428 230.901, 457.428 231.823 M 444.018 243.827 C 443.302 244.066, 444.176 244.875, 445.961 245.626 C 449.117 246.953, 451 246.739, 451 245.054 C 451 244.087, 445.917 243.194, 444.018 243.827 M 455.750 244.777 C 453.311 245.093, 451.804 246.842, 453.750 247.099 C 466.532 248.790, 475.277 248.919, 477.375 247.450 C 478.912 246.373, 479.033 245.966, 477.923 245.600 C 475.985 244.960, 459.160 244.335, 455.750 244.777 M 421.500 247 C 421.160 247.550, 421.584 248, 422.441 248 C 423.298 248, 424 247.550, 424 247 C 424 246.450, 423.577 246, 423.059 246 C 422.541 246, 421.840 246.450, 421.500 247 M 429 263 C 429 263.550, 429.702 264, 430.559 264 C 431.416 264, 431.840 263.550, 431.500 263 C 431.160 262.450, 430.459 262, 429.941 262 C 429.423 262, 429 262.450, 429 263 M 393.500 266 C 397.983 268.166, 399 268.380, 399 267.158 C 399 266.695, 397.260 265.795, 395.134 265.158 C 389.530 263.479, 388.925 263.790, 393.500 266 M 472.832 279.939 C 466.965 280.248, 461.827 280.837, 461.415 281.250 C 461.004 281.663, 462.118 282, 463.892 282 C 465.788 282, 466.863 282.412, 466.500 283 C 466.126 283.605, 467.509 284, 470 284 C 472.265 284, 473.873 283.603, 473.572 283.117 C 473.272 282.632, 476.878 281.914, 481.584 281.521 C 486.291 281.129, 489.887 280.553, 489.575 280.242 C 488.726 279.392, 484.639 279.319, 472.832 279.939 M 491.813 279.683 C 492.534 279.972, 493.397 279.936, 493.729 279.604 C 494.061 279.272, 493.471 279.036, 492.417 279.079 C 491.252 279.127, 491.015 279.364, 491.813 279.683 M 446.264 280.718 C 447.784 280.947, 450.034 280.941, 451.264 280.704 C 452.494 280.467, 451.250 280.279, 448.500 280.286 C 445.750 280.294, 444.744 280.488, 446.264 280.718 M 1.762 302.707 C 3.006 302.946, 4.806 302.937, 5.762 302.687 C 6.718 302.437, 5.700 302.241, 3.500 302.252 C 1.300 302.263, 0.518 302.468, 1.762 302.707 M 12.750 302.737 C 15.638 302.939, 20.363 302.939, 23.250 302.737 C 26.138 302.535, 23.775 302.370, 18 302.370 C 12.225 302.370, 9.863 302.535, 12.750 302.737 " stroke="none" fill="#a87797" fill-rule="evenodd"/>
</svg>